<svg width="14" height="23" viewBox="0 0 14 23" fill="none" xmlns="http://www.w3.org/2000/svg">
<path d="M7 0C3.1332 0 0 3.20619 0 7.17761C0 14.0445 7 23 7 23C7 23 14 14.0431 14 7.17761C14 3.20763 10.8668 0 7 0ZM7 11.149C5.99748 11.149 5.03602 10.7399 4.32714 10.0115C3.61825 9.2832 3.22 8.29537 3.22 7.26535C3.22 6.23534 3.61825 5.24751 4.32714 4.51918C5.03602 3.79085 5.99748 3.38168 7 3.38168C8.00252 3.38168 8.96398 3.79085 9.67286 4.51918C10.3818 5.24751 10.78 6.23534 10.78 7.26535C10.78 8.29537 10.3818 9.2832 9.67286 10.0115C8.96398 10.7399 8.00252 11.149 7 11.149Z" fill="#888888"/>
</svg>
