<svg width="134" height="33" viewBox="0 0 134 33" fill="none" xmlns="http://www.w3.org/2000/svg">
<path d="M43.474 23.119C42.08 23.119 40.9353 22.7903 40.04 22.133C39.1447 21.4643 38.663 20.5123 38.595 19.277H42.148C42.182 19.6963 42.3067 20.0023 42.522 20.195C42.7373 20.3877 43.015 20.484 43.355 20.484C43.661 20.484 43.9103 20.4103 44.103 20.263C44.307 20.1043 44.409 19.889 44.409 19.617C44.409 19.2657 44.2447 18.9937 43.916 18.801C43.5873 18.6083 43.0547 18.393 42.318 18.155C41.536 17.8943 40.9013 17.645 40.414 17.407C39.938 17.1577 39.5187 16.8007 39.156 16.336C38.8047 15.86 38.629 15.2423 38.629 14.483C38.629 13.7123 38.8217 13.055 39.207 12.511C39.5923 11.9557 40.125 11.5363 40.805 11.253C41.485 10.9697 42.2557 10.828 43.117 10.828C44.511 10.828 45.6217 11.1567 46.449 11.814C47.2877 12.46 47.7353 13.3723 47.792 14.551H44.171C44.1597 14.1883 44.0463 13.9163 43.831 13.735C43.627 13.5537 43.3607 13.463 43.032 13.463C42.7827 13.463 42.5787 13.5367 42.42 13.684C42.2613 13.8313 42.182 14.041 42.182 14.313C42.182 14.5397 42.267 14.738 42.437 14.908C42.6183 15.0667 42.8393 15.2083 43.1 15.333C43.3607 15.4463 43.746 15.5937 44.256 15.775C45.0153 16.0357 45.6387 16.2963 46.126 16.557C46.6247 16.8063 47.0497 17.1633 47.401 17.628C47.7637 18.0813 47.945 18.6593 47.945 19.362C47.945 20.076 47.7637 20.7163 47.401 21.283C47.0497 21.8497 46.534 22.2973 45.854 22.626C45.1853 22.9547 44.392 23.119 43.474 23.119ZM60.391 11.015L56.175 19.192V23H52.826V19.192L48.61 11.015H52.418L54.526 15.639L56.634 11.015H60.391ZM65.9359 23.119C64.5419 23.119 63.3972 22.7903 62.5019 22.133C61.6066 21.4643 61.1249 20.5123 61.0569 19.277H64.6099C64.6439 19.6963 64.7686 20.0023 64.9839 20.195C65.1992 20.3877 65.4769 20.484 65.8169 20.484C66.1229 20.484 66.3722 20.4103 66.5649 20.263C66.7689 20.1043 66.8709 19.889 66.8709 19.617C66.8709 19.2657 66.7066 18.9937 66.3779 18.801C66.0492 18.6083 65.5166 18.393 64.7799 18.155C63.9979 17.8943 63.3632 17.645 62.8759 17.407C62.3999 17.1577 61.9806 16.8007 61.6179 16.336C61.2666 15.86 61.0909 15.2423 61.0909 14.483C61.0909 13.7123 61.2836 13.055 61.6689 12.511C62.0542 11.9557 62.5869 11.5363 63.2669 11.253C63.9469 10.9697 64.7176 10.828 65.5789 10.828C66.9729 10.828 68.0836 11.1567 68.9109 11.814C69.7496 12.46 70.1972 13.3723 70.2539 14.551H66.6329C66.6216 14.1883 66.5082 13.9163 66.2929 13.735C66.0889 13.5537 65.8226 13.463 65.4939 13.463C65.2446 13.463 65.0406 13.5367 64.8819 13.684C64.7232 13.8313 64.6439 14.041 64.6439 14.313C64.6439 14.5397 64.7289 14.738 64.8989 14.908C65.0802 15.0667 65.3012 15.2083 65.5619 15.333C65.8226 15.4463 66.2079 15.5937 66.7179 15.775C67.4772 16.0357 68.1006 16.2963 68.5879 16.557C69.0866 16.8063 69.5116 17.1633 69.8629 17.628C70.2256 18.0813 70.4069 18.6593 70.4069 19.362C70.4069 20.076 70.2256 20.7163 69.8629 21.283C69.5116 21.8497 68.9959 22.2973 68.3159 22.626C67.6472 22.9547 66.8539 23.119 65.9359 23.119ZM80.9829 11.015V13.667H77.7869V23H74.4549V13.667H71.2929V11.015H80.9829ZM85.5477 13.684V15.639H89.3727V18.172H85.5477V20.331H89.8827V23H82.2157V11.015H89.8827V13.684H85.5477Z" fill="#7D7D7D"/>
<path d="M105.52 11.015V23H102.188V16.387L99.9271 23H97.1391L94.8611 16.336V23H91.5291V11.015H95.5581L98.5671 18.801L101.508 11.015H105.52ZM110.749 11.015V23H107.417V11.015H110.749ZM116.284 20.297H121.265V23H112.544V20.467L117.474 13.701H112.544V11.015H121.265V13.548L116.284 20.297ZM126.404 13.684V15.639H130.229V18.172H126.404V20.331H130.739V23H123.072V11.015H130.739V13.684H126.404Z" fill="#28B4DD"/>
<path d="M30.0392 16.5C30.0392 24.5642 23.7071 31 16.0196 31C8.33208 31 2 24.5642 2 16.5C2 8.43576 8.33208 2 16.0196 2C23.7071 2 30.0392 8.43576 30.0392 16.5Z" stroke="#1BADDA" stroke-width="4"/>
<path d="M36 16.1163C36 21.0017 32.1698 24.8604 27.5686 24.8604C22.9674 24.8604 19.1372 21.0017 19.1372 16.1163C19.1372 11.2309 22.9674 7.37207 27.5686 7.37207C32.1698 7.37207 36 11.2309 36 16.1163Z" stroke="white" stroke-width="4"/>
<ellipse cx="15.6471" cy="16.1163" rx="7.45098" ry="7.67442" fill="url(#paint0_linear)"/>
<defs>
<linearGradient id="paint0_linear" x1="15.6471" y1="8.44183" x2="15.6471" y2="23.7907" gradientUnits="userSpaceOnUse">
<stop stop-color="#7DE0FF"/>
<stop offset="1" stop-color="#1BADDA"/>
</linearGradient>
</defs>
</svg>
