<svg width="33" height="30" viewBox="0 0 33 30" fill="none" xmlns="http://www.w3.org/2000/svg">
<path d="M23.0489 20.2104L24.8823 18.3357C25.1688 18.0428 25.6672 18.2478 25.6672 18.6696V27.1879C25.6672 28.7404 24.4354 30 22.9172 30H2.75006C1.2318 30 0 28.7404 0 27.1879V6.56593C0 5.01343 1.2318 3.75384 2.75006 3.75384H18.4197C18.8264 3.75384 19.0327 4.25768 18.7462 4.55646L16.9129 6.43119C16.8269 6.51906 16.7123 6.56593 16.5863 6.56593H2.75006V27.1879H22.9172V20.5385C22.9172 20.4155 22.963 20.2983 23.0489 20.2104ZM32.021 8.38793L16.9759 23.7724L11.7966 24.3582C10.2955 24.5281 9.0179 23.2334 9.18405 21.6868L9.75698 16.3907L24.8021 1.0062C26.1141 -0.3354 28.2339 -0.3354 29.5402 1.0062L32.0153 3.53708C33.3273 4.87868 33.3273 7.05219 32.021 8.38793V8.38793ZM26.3605 10.1982L23.0317 6.79441L12.3867 17.6854L11.9685 21.511L15.7097 21.0833L26.3605 10.1982ZM30.073 5.52898L27.598 2.9981C27.3631 2.7579 26.9792 2.7579 26.7501 2.9981L24.9797 4.80838L28.3084 8.21218L30.0788 6.40189C30.3079 6.15584 30.3079 5.76917 30.073 5.52898V5.52898Z" fill="#888888"/>
</svg>
